<?xml version="1.0" encoding="utf-8"?>
<!-- Generator: Adobe Illustrator 21.0.0, SVG Export Plug-In . SVG Version: 6.00 Build 0)  -->
<svg version="1.1" id="Layer_1" xmlns="http://www.w3.org/2000/svg" xmlns:xlink="http://www.w3.org/1999/xlink" x="0px" y="0px"
	 viewBox="0 0 64 64" style="enable-background:new 0 0 64 64;" xml:space="preserve">
<style type="text/css">
	.st0{fill:#039BE5;stroke:#0277BD;stroke-linecap:round;stroke-linejoin:round;stroke-miterlimit:10;}
	.st1{fill:#81D4FA;stroke:#0277BD;stroke-linecap:round;stroke-linejoin:round;stroke-miterlimit:10;}
	.st2{fill:#EC407A;stroke:#0277BD;stroke-linecap:round;stroke-linejoin:round;stroke-miterlimit:10;}
	.st3{fill:#FFA726;stroke:#0277BD;stroke-linecap:round;stroke-linejoin:round;stroke-miterlimit:10;}
	.st4{fill:#80CBC4;stroke:#0277BD;stroke-linecap:round;stroke-linejoin:round;stroke-miterlimit:10;}
	.st5{fill:none;stroke:#F48FB1;stroke-linecap:round;stroke-linejoin:round;stroke-miterlimit:10;}
	.st6{fill:none;stroke:#FFCC80;stroke-linecap:round;stroke-linejoin:round;stroke-miterlimit:10;}
	.st7{fill:none;stroke:#E0F2F1;stroke-linecap:round;stroke-linejoin:round;stroke-miterlimit:10;}
	.st8{fill:none;stroke:#26A69A;stroke-linecap:round;stroke-linejoin:round;stroke-miterlimit:10;}
	.st9{fill:none;stroke:#F57C00;stroke-linecap:round;stroke-linejoin:round;stroke-miterlimit:10;}
	.st10{fill:none;stroke:#D81B60;stroke-linecap:round;stroke-linejoin:round;stroke-miterlimit:10;}
	.st11{fill:#EEEEEE;stroke:#0277BD;stroke-linecap:round;stroke-linejoin:round;stroke-miterlimit:10;}
	.st12{fill:none;stroke:#BDBDBD;stroke-linecap:round;stroke-linejoin:round;stroke-miterlimit:10;}
	.st13{fill:none;stroke:#E1F5FE;stroke-linecap:round;stroke-linejoin:round;stroke-miterlimit:10;}
	.st14{fill:none;stroke:#FFFFFF;stroke-linecap:round;stroke-linejoin:round;stroke-miterlimit:10;}
	.st15{fill:none;stroke:#29B6F6;stroke-linecap:round;stroke-linejoin:round;stroke-miterlimit:10;}
	.st16{fill:none;stroke:#4FC3F7;stroke-linecap:round;stroke-linejoin:round;stroke-miterlimit:10;}
	.st17{fill:none;stroke:#0277BD;stroke-linecap:round;stroke-linejoin:round;stroke-miterlimit:10;}
</style>
<g id="Calendar">
	<g>
		<path class="st1" d="M57,63H7c-1.7,0-3-1.3-3-3V11.5c0-1.7,1.3-3,3-3h50c1.7,0,3,1.3,3,3V60C60,61.7,58.7,63,57,63z"/>
		<path class="st3" d="M60,23H4V11.5c0-1.7,1.3-3,3-3h50c1.7,0,3,1.3,3,3V23z"/>
		<g>
			<path class="st2" d="M17,37h-6v-5c0-0.6,0.4-1,1-1h5V37z"/>
			<rect x="17" y="31" class="st11" width="6" height="6"/>
			<rect x="23" y="31" class="st11" width="6" height="6"/>
			<rect x="29" y="31" class="st11" width="6" height="6"/>
			<path class="st11" d="M41,37h-6v-6h5c0.6,0,1,0.4,1,1V37z"/>
			<rect x="11" y="37" class="st2" width="6" height="6"/>
			<rect x="17" y="37" class="st11" width="6" height="6"/>
			<rect x="23" y="37" class="st11" width="6" height="6"/>
			<rect x="29" y="37" class="st11" width="6" height="6"/>
			<rect x="35" y="37" class="st11" width="6" height="6"/>
			<rect x="11" y="43" class="st2" width="6" height="6"/>
			<rect x="17" y="43" class="st11" width="6" height="6"/>
			<rect x="23" y="43" class="st11" width="6" height="6"/>
			<rect x="29" y="43" class="st11" width="6" height="6"/>
			<rect x="35" y="43" class="st11" width="6" height="6"/>
			<path class="st2" d="M17,55h-5c-0.6,0-1-0.4-1-1v-5h6V55z"/>
			<rect x="17" y="49" class="st11" width="6" height="6"/>
			<rect x="23" y="49" class="st11" width="6" height="6"/>
			<rect x="29" y="49" class="st11" width="6" height="6"/>
			<path class="st11" d="M40,55h-5v-6h6v5C41,54.6,40.6,55,40,55z"/>
			<rect x="41" y="31" class="st11" width="6" height="6"/>
			<path class="st11" d="M53,37h-6v-6h5c0.6,0,1,0.4,1,1V37z"/>
			<rect x="41" y="37" class="st11" width="6" height="6"/>
			<rect x="47" y="37" class="st11" width="6" height="6"/>
			<rect x="41" y="43" class="st11" width="6" height="6"/>
			<rect x="47" y="43" class="st11" width="6" height="6"/>
			<rect x="41" y="49" class="st11" width="6" height="6"/>
			<path class="st11" d="M52,55h-5v-6h6v5C53,54.6,52.6,55,52,55z"/>
		</g>
		<circle class="st11" cx="13" cy="15.2" r="3"/>
		<circle class="st11" cx="52" cy="14.7" r="3"/>
		<circle class="st11" cx="39" cy="15.2" r="3"/>
		<circle class="st11" cx="26" cy="15.2" r="3"/>
		<line class="st15" x1="7" y1="61" x2="57" y2="61"/>
		<line class="st13" x1="7" y1="25" x2="57" y2="25"/>
		<line class="st9" x1="7" y1="21" x2="57" y2="21"/>
		<line class="st6" x1="7" y1="10.5" x2="57" y2="10.5"/>
		<path class="st11" d="M13,16L13,16c-0.8,0-1.5-0.7-1.5-1.5v-12C11.5,1.7,12.2,1,13,1h0c0.8,0,1.5,0.7,1.5,1.5v12
			C14.5,15.3,13.8,16,13,16z"/>
		<path class="st11" d="M52,16L52,16c-0.8,0-1.5-0.7-1.5-1.5v-12C50.5,1.7,51.2,1,52,1l0,0c0.8,0,1.5,0.7,1.5,1.5v12
			C53.5,15.3,52.8,16,52,16z"/>
		<path class="st11" d="M39,16L39,16c-0.8,0-1.5-0.7-1.5-1.5v-12C37.5,1.7,38.2,1,39,1l0,0c0.8,0,1.5,0.7,1.5,1.5v12
			C40.5,15.3,39.8,16,39,16z"/>
		<path class="st11" d="M26,16L26,16c-0.8,0-1.5-0.7-1.5-1.5v-12C24.5,1.7,25.2,1,26,1h0c0.8,0,1.5,0.7,1.5,1.5v12
			C27.5,15.3,26.8,16,26,16z"/>
	</g>
</g>
</svg>
